# xmcd
#
# Track frame offsets: 
#        150
#        14502
#        26183
#        38951
#        58075
#        70472
#        77913
#        87731
#        110908
#        125946
#        136847
#        152815
#        171671
#        187667
#        201852
#        224971
#        240266
#        251238
#        267267
#        292001
#        316641
#        331741
#
# Disc length: 4557 seconds
#
# Revision: 3
# Processed by: cddbd v1.5.2PL0 Copyright (c) Steve Scherf et al.
# Submitted via: ExactAudioCopyFreeDBPlugin 1.0
#
DISCID=5e11cb16
DTITLE=Climax Blues Band - Couldn't Get It Right [hits, singles, B-sid
DTITLE=es]
DYEAR=2000
DGENRE=Rhythmn Blues
TTITLE0=Couldn't Get It Right US#9 UK#3(slightly shorter than US or UK
TTITLE0=7'') on 1977-05-21 UK 7''a BTM SBT 105 1976
TTITLE1=Reap What I've Sowed (Single Version) US7''a Sire SI 351 1970
TTITLE2=Looking For My Baby [Climax Chicago Blues Band LP track] 1968
TTITLE3=Like Uncle Charly UK7''a Parlophone R 5809 1969
TTITLE4=Reaching Out (Single Version) US7''a Sire SAA-715 1974
TTITLE5=Milwaukee Truckin' Blues (Chipper's Song) US7''b Sire SAA-715 
TTITLE5=1974
TTITLE6=That's All [Tightly Knit LP track] 1971
TTITLE7=Mole On The Dole UK7''a Harevest HAR 5065 1973
TTITLE8=Towards The Sun UK7''a Harevest HAR 5041 1971
TTITLE9=Loving Machine UK7''b Parlophone R 5809 1969
TTITLE10=Hey Mama [Tightly Knit LP track] 1971
TTITLE11=Nogales [Sense Of Direction LP] 1974
TTITLE12=Using The Power (Single Version) US#110(7'') on 1975-11-15 US
TTITLE12=7''a Sire SAA-721 1975
TTITLE13=I Am Constant [Stamp Album LP] 1975
TTITLE14=Sky High [Stamp Album LP] 1975
TTITLE15=Berlin Blues [Gold Plated LP] 1976
TTITLE16=Everyday [Gold Plated LP] 1976
TTITLE17=Shoot Her If She Runs [Tightly Knit LP track] 1971
TTITLE18=If You Wanna Know [Rich Man LP] 1972
TTITLE19=Shake Your Love [Rich Man LP] 1972
TTITLE20=Hey Baby Everything's Gonna Be Alright Yeah Yeah Yeah [Plays 
TTITLE20=On LP] 1969
TTITLE21=Cobra [Stamp Album LP] 1975
EXTD=
EXTT0=
EXTT1=
EXTT2=
EXTT3=
EXTT4=
EXTT5=
EXTT6=
EXTT7=
EXTT8=
EXTT9=
EXTT10=
EXTT11=
EXTT12=
EXTT13=
EXTT14=
EXTT15=
EXTT16=
EXTT17=
EXTT18=
EXTT19=
EXTT20=
EXTT21=
PLAYORDER=
